<?xml version="1.0" encoding="us-ascii" standalone="no"?><svg xmlns="http://www.w3.org/2000/svg" xmlns:xlink="http://www.w3.org/1999/xlink" contentStyleType="text/css" height="476px" preserveAspectRatio="none" style="width:553px;height:476px;background:#FFFFFF;" version="1.1" viewBox="0 0 553 476" width="553px" zoomAndPan="magnify"><defs/><g><!--cluster state_pattern--><g id="cluster_state_pattern"><path d="M8.5,6 L122.5,6 A3.75,3.75 0 0 1 125,8.5 L132,28.2969 L543.5,28.2969 A2.5,2.5 0 0 1 546,30.7969 L546,466.5 A2.5,2.5 0 0 1 543.5,469 L8.5,469 A2.5,2.5 0 0 1 6,466.5 L6,8.5 A2.5,2.5 0 0 1 8.5,6 " fill="none" style="stroke:#000000;stroke-width:1.5;"/><line style="stroke:#000000;stroke-width:1.5;" x1="6" x2="132" y1="28.2969" y2="28.2969"/><text fill="#000000" font-family="sans-serif" font-size="14" font-weight="bold" lengthAdjust="spacing" textLength="113" x="10" y="20.9951">state_pattern</text></g><!--cluster state_game.dart--><g id="cluster_state_game.dart"><path d="M32.5,49 L168.5,49 A3.75,3.75 0 0 1 171,51.5 L178,71.2969 L519.5,71.2969 A2.5,2.5 0 0 1 522,73.7969 L522,442.5 A2.5,2.5 0 0 1 519.5,445 L32.5,445 A2.5,2.5 0 0 1 30,442.5 L30,51.5 A2.5,2.5 0 0 1 32.5,49 " fill="none" style="stroke:#000000;stroke-width:1.5;"/><line style="stroke:#000000;stroke-width:1.5;" x1="30" x2="178" y1="71.2969" y2="71.2969"/><text fill="#000000" font-family="sans-serif" font-size="14" font-weight="bold" lengthAdjust="spacing" textLength="135" x="34" y="63.9951">state_game.dart</text></g><!--class GameState--><g id="elem_GameState"><rect codeLine="3" fill="#F1F1F1" height="64.2969" id="GameState" rx="2.5" ry="2.5" style="stroke:#181818;stroke-width:0.5;" width="120" x="211" y="241"/><ellipse cx="229.6" cy="257" fill="#A9DCDF" rx="11" ry="11" style="stroke:#181818;stroke-width:1.0;"/><path d="M231.6781,258.8125 L232.0688,259.7969 L231.6781,259.7969 C231.225,259.7969 231.1156,259.8125 230.9594,259.9219 C230.7094,260.0781 230.5531,260.3594 230.5531,260.6563 C230.5531,260.9219 230.6938,261.1719 230.9125,261.3281 C231.0531,261.4531 231.2563,261.5 231.6781,261.5 L234.0375,261.5 C234.3969,261.5 234.6156,261.4688 234.7563,261.375 C235.0063,261.2344 235.1625,260.9375 235.1625,260.6563 C235.1625,260.375 235.0219,260.125 234.8031,259.9688 C234.6313,259.8281 234.475,259.7969 234.0063,259.7969 L230.6156,251.5938 L226.9438,251.5938 C226.4906,251.5938 226.3656,251.6094 226.2094,251.7031 C225.9594,251.875 225.8031,252.1563 225.8031,252.4375 C225.8031,252.7188 225.9438,252.9688 226.1625,253.1406 C226.3344,253.25 226.5063,253.2813 226.9438,253.2813 L228.0219,253.2813 L225.3813,259.7969 C224.9594,259.7969 224.8031,259.8125 224.6469,259.9219 C224.3969,260.0781 224.2406,260.3594 224.2406,260.6563 C224.2406,261.2188 224.6156,261.5 225.3656,261.5 L227.6313,261.5 C227.9906,261.5 228.2094,261.4688 228.3344,261.375 C228.6,261.2344 228.7406,260.9375 228.7406,260.6563 C228.7406,260.375 228.6156,260.125 228.3969,259.9531 C228.225,259.8281 228.0844,259.7969 227.6313,259.7969 L227.2406,259.7969 L227.6313,258.8125 L231.6781,258.8125 Z M230.975,257.1094 L228.3031,257.1094 L229.6469,253.8438 L230.975,257.1094 Z " fill="#000000"/><text fill="#000000" font-family="sans-serif" font-size="14" font-style="italic" lengthAdjust="spacing" textLength="80" x="244.4" y="261.8467">GameState</text><line style="stroke:#181818;stroke-width:0.5;" x1="212" x2="330" y1="273" y2="273"/><line style="stroke:#181818;stroke-width:0.5;" x1="212" x2="330" y1="281" y2="281"/><ellipse cx="222" cy="294.6484" fill="#84BE84" rx="3" ry="3" style="stroke:#038048;stroke-width:1.0;"/><text fill="#000000" font-family="sans-serif" font-size="14" lengthAdjust="spacing" textLength="94" x="231" y="297.9951">void display()</text></g><!--class PlayingState--><g id="elem_PlayingState"><rect codeLine="7" fill="#F1F1F1" height="64.2969" id="PlayingState" rx="2.5" ry="2.5" style="stroke:#181818;stroke-width:0.5;" width="123" x="46.5" y="365"/><ellipse cx="61.5" cy="381" fill="#ADD1B2" rx="11" ry="11" style="stroke:#181818;stroke-width:1.0;"/><path d="M63.8438,376.6719 C62.9063,376.2344 62.3125,376.0938 61.4375,376.0938 C58.8125,376.0938 56.8125,378.1719 56.8125,380.8906 L56.8125,382.0156 C56.8125,384.5938 58.9219,386.4844 61.8125,386.4844 C63.0313,386.4844 64.1875,386.1875 64.9375,385.6406 C65.5156,385.2344 65.8438,384.7813 65.8438,384.3906 C65.8438,383.9375 65.4531,383.5469 64.9844,383.5469 C64.7656,383.5469 64.5625,383.625 64.375,383.8125 C63.9219,384.2969 63.9219,384.2969 63.7344,384.3906 C63.3125,384.6563 62.625,384.7813 61.8594,384.7813 C59.8125,384.7813 58.5156,383.6875 58.5156,381.9844 L58.5156,380.8906 C58.5156,379.1094 59.7656,377.7969 61.5,377.7969 C62.0781,377.7969 62.6875,377.9531 63.1563,378.2031 C63.6406,378.4844 63.8125,378.7031 63.9063,379.1094 C63.9688,379.5156 64,379.6406 64.1406,379.7656 C64.2813,379.9063 64.5156,380.0156 64.7344,380.0156 C65,380.0156 65.2656,379.875 65.4375,379.6563 C65.5469,379.5 65.5781,379.3125 65.5781,378.8906 L65.5781,377.4688 C65.5781,377.0313 65.5625,376.9063 65.4688,376.75 C65.3125,376.4844 65.0313,376.3438 64.7344,376.3438 C64.4375,376.3438 64.2344,376.4375 64.0156,376.75 L63.8438,376.6719 Z " fill="#000000"/><text fill="#000000" font-family="sans-serif" font-size="14" lengthAdjust="spacing" textLength="91" x="75.5" y="385.8467">PlayingState</text><line style="stroke:#181818;stroke-width:0.5;" x1="47.5" x2="168.5" y1="397" y2="397"/><line style="stroke:#181818;stroke-width:0.5;" x1="47.5" x2="168.5" y1="405" y2="405"/><ellipse cx="57.5" cy="418.6484" fill="#84BE84" rx="3" ry="3" style="stroke:#038048;stroke-width:1.0;"/><text fill="#000000" font-family="sans-serif" font-size="14" lengthAdjust="spacing" textLength="94" x="66.5" y="421.9951">void display()</text></g><!--class TimeoutState--><g id="elem_TimeoutState"><rect codeLine="13" fill="#F1F1F1" height="64.2969" id="TimeoutState" rx="2.5" ry="2.5" style="stroke:#181818;stroke-width:0.5;" width="132" x="205" y="365"/><ellipse cx="220" cy="381" fill="#ADD1B2" rx="11" ry="11" style="stroke:#181818;stroke-width:1.0;"/><path d="M222.3438,376.6719 C221.4063,376.2344 220.8125,376.0938 219.9375,376.0938 C217.3125,376.0938 215.3125,378.1719 215.3125,380.8906 L215.3125,382.0156 C215.3125,384.5938 217.4219,386.4844 220.3125,386.4844 C221.5313,386.4844 222.6875,386.1875 223.4375,385.6406 C224.0156,385.2344 224.3438,384.7813 224.3438,384.3906 C224.3438,383.9375 223.9531,383.5469 223.4844,383.5469 C223.2656,383.5469 223.0625,383.625 222.875,383.8125 C222.4219,384.2969 222.4219,384.2969 222.2344,384.3906 C221.8125,384.6563 221.125,384.7813 220.3594,384.7813 C218.3125,384.7813 217.0156,383.6875 217.0156,381.9844 L217.0156,380.8906 C217.0156,379.1094 218.2656,377.7969 220,377.7969 C220.5781,377.7969 221.1875,377.9531 221.6563,378.2031 C222.1406,378.4844 222.3125,378.7031 222.4063,379.1094 C222.4688,379.5156 222.5,379.6406 222.6406,379.7656 C222.7813,379.9063 223.0156,380.0156 223.2344,380.0156 C223.5,380.0156 223.7656,379.875 223.9375,379.6563 C224.0469,379.5 224.0781,379.3125 224.0781,378.8906 L224.0781,377.4688 C224.0781,377.0313 224.0625,376.9063 223.9688,376.75 C223.8125,376.4844 223.5313,376.3438 223.2344,376.3438 C222.9375,376.3438 222.7344,376.4375 222.5156,376.75 L222.3438,376.6719 Z " fill="#000000"/><text fill="#000000" font-family="sans-serif" font-size="14" lengthAdjust="spacing" textLength="100" x="234" y="385.8467">TimeoutState</text><line style="stroke:#181818;stroke-width:0.5;" x1="206" x2="336" y1="397" y2="397"/><line style="stroke:#181818;stroke-width:0.5;" x1="206" x2="336" y1="405" y2="405"/><ellipse cx="216" cy="418.6484" fill="#84BE84" rx="3" ry="3" style="stroke:#038048;stroke-width:1.0;"/><text fill="#000000" font-family="sans-serif" font-size="14" lengthAdjust="spacing" textLength="94" x="225" y="421.9951">void display()</text></g><!--class HalftimeState--><g id="elem_HalftimeState"><rect codeLine="19" fill="#F1F1F1" height="64.2969" id="HalftimeState" rx="2.5" ry="2.5" style="stroke:#181818;stroke-width:0.5;" width="134" x="372" y="365"/><ellipse cx="387" cy="381" fill="#ADD1B2" rx="11" ry="11" style="stroke:#181818;stroke-width:1.0;"/><path d="M389.3438,376.6719 C388.4063,376.2344 387.8125,376.0938 386.9375,376.0938 C384.3125,376.0938 382.3125,378.1719 382.3125,380.8906 L382.3125,382.0156 C382.3125,384.5938 384.4219,386.4844 387.3125,386.4844 C388.5313,386.4844 389.6875,386.1875 390.4375,385.6406 C391.0156,385.2344 391.3438,384.7813 391.3438,384.3906 C391.3438,383.9375 390.9531,383.5469 390.4844,383.5469 C390.2656,383.5469 390.0625,383.625 389.875,383.8125 C389.4219,384.2969 389.4219,384.2969 389.2344,384.3906 C388.8125,384.6563 388.125,384.7813 387.3594,384.7813 C385.3125,384.7813 384.0156,383.6875 384.0156,381.9844 L384.0156,380.8906 C384.0156,379.1094 385.2656,377.7969 387,377.7969 C387.5781,377.7969 388.1875,377.9531 388.6563,378.2031 C389.1406,378.4844 389.3125,378.7031 389.4063,379.1094 C389.4688,379.5156 389.5,379.6406 389.6406,379.7656 C389.7813,379.9063 390.0156,380.0156 390.2344,380.0156 C390.5,380.0156 390.7656,379.875 390.9375,379.6563 C391.0469,379.5 391.0781,379.3125 391.0781,378.8906 L391.0781,377.4688 C391.0781,377.0313 391.0625,376.9063 390.9688,376.75 C390.8125,376.4844 390.5313,376.3438 390.2344,376.3438 C389.9375,376.3438 389.7344,376.4375 389.5156,376.75 L389.3438,376.6719 Z " fill="#000000"/><text fill="#000000" font-family="sans-serif" font-size="14" lengthAdjust="spacing" textLength="102" x="401" y="385.8467">HalftimeState</text><line style="stroke:#181818;stroke-width:0.5;" x1="373" x2="505" y1="397" y2="397"/><line style="stroke:#181818;stroke-width:0.5;" x1="373" x2="505" y1="405" y2="405"/><ellipse cx="383" cy="418.6484" fill="#84BE84" rx="3" ry="3" style="stroke:#038048;stroke-width:1.0;"/><text fill="#000000" font-family="sans-serif" font-size="14" lengthAdjust="spacing" textLength="94" x="392" y="421.9951">void display()</text></g><!--class Game--><g id="elem_Game"><rect codeLine="25" fill="#F1F1F1" height="96.8906" id="Game" rx="2.5" ry="2.5" style="stroke:#181818;stroke-width:0.5;" width="208" x="167" y="84"/><ellipse cx="245.75" cy="100" fill="#ADD1B2" rx="11" ry="11" style="stroke:#181818;stroke-width:1.0;"/><path d="M248.0938,95.6719 C247.1563,95.2344 246.5625,95.0938 245.6875,95.0938 C243.0625,95.0938 241.0625,97.1719 241.0625,99.8906 L241.0625,101.0156 C241.0625,103.5938 243.1719,105.4844 246.0625,105.4844 C247.2813,105.4844 248.4375,105.1875 249.1875,104.6406 C249.7656,104.2344 250.0938,103.7813 250.0938,103.3906 C250.0938,102.9375 249.7031,102.5469 249.2344,102.5469 C249.0156,102.5469 248.8125,102.625 248.625,102.8125 C248.1719,103.2969 248.1719,103.2969 247.9844,103.3906 C247.5625,103.6563 246.875,103.7813 246.1094,103.7813 C244.0625,103.7813 242.7656,102.6875 242.7656,100.9844 L242.7656,99.8906 C242.7656,98.1094 244.0156,96.7969 245.75,96.7969 C246.3281,96.7969 246.9375,96.9531 247.4063,97.2031 C247.8906,97.4844 248.0625,97.7031 248.1563,98.1094 C248.2188,98.5156 248.25,98.6406 248.3906,98.7656 C248.5313,98.9063 248.7656,99.0156 248.9844,99.0156 C249.25,99.0156 249.5156,98.875 249.6875,98.6563 C249.7969,98.5 249.8281,98.3125 249.8281,97.8906 L249.8281,96.4688 C249.8281,96.0313 249.8125,95.9063 249.7188,95.75 C249.5625,95.4844 249.2813,95.3438 248.9844,95.3438 C248.6875,95.3438 248.4844,95.4375 248.2656,95.75 L248.0938,95.6719 Z " fill="#000000"/><text fill="#000000" font-family="sans-serif" font-size="14" lengthAdjust="spacing" textLength="42" x="266.25" y="104.8467">Game</text><line style="stroke:#181818;stroke-width:0.5;" x1="168" x2="374" y1="116" y2="116"/><rect fill="none" height="6" style="stroke:#C82930;stroke-width:1.0;" width="6" x="175" y="126.6484"/><text fill="#000000" font-family="sans-serif" font-size="14" lengthAdjust="spacing" textLength="131" x="187" y="132.9951">GameState _state</text><line style="stroke:#181818;stroke-width:0.5;" x1="168" x2="374" y1="140.2969" y2="140.2969"/><ellipse cx="178" cy="153.9453" fill="#84BE84" rx="3" ry="3" style="stroke:#038048;stroke-width:1.0;"/><text fill="#000000" font-family="sans-serif" font-size="14" lengthAdjust="spacing" textLength="107" x="187" y="157.292">void setState()</text><ellipse cx="178" cy="170.2422" fill="#84BE84" rx="3" ry="3" style="stroke:#038048;stroke-width:1.0;"/><text fill="#000000" font-family="sans-serif" font-size="14" lengthAdjust="spacing" textLength="182" x="187" y="173.5889">void displayGameStatus()</text></g><!--reverse link GameState to PlayingState--><g id="link_GameState_PlayingState"><path codeLine="11" d="M213.192,317.267 C192.158,333.011 168.818,350.48 149.478,364.955 " fill="none" id="GameState-backto-PlayingState" style="stroke:#181818;stroke-width:1.0;"/><polygon fill="none" points="209.24,311.482,229.446,305.101,217.629,322.69,209.24,311.482" style="stroke:#181818;stroke-width:1.0;"/></g><!--reverse link GameState to TimeoutState--><g id="link_GameState_TimeoutState"><path codeLine="17" d="M271,325.341 C271,338.806 271,352.916 271,364.955 " fill="none" id="GameState-backto-TimeoutState" style="stroke:#181818;stroke-width:1.0;"/><polygon fill="none" points="264,325.101,271,305.101,278,325.101,264,325.101" style="stroke:#181818;stroke-width:1.0;"/></g><!--reverse link GameState to HalftimeState--><g id="link_GameState_HalftimeState"><path codeLine="23" d="M330.259,317.033 C352.022,332.838 376.218,350.408 396.25,364.955 " fill="none" id="GameState-backto-HalftimeState" style="stroke:#181818;stroke-width:1.0;"/><polygon fill="none" points="325.898,322.518,313.828,305.101,334.124,311.189,325.898,322.518" style="stroke:#181818;stroke-width:1.0;"/></g><!--reverse link Game to GameState--><g id="link_Game_GameState"><path codeLine="31" d="M271,194.4 C271,210.418 271,227.04 271,240.772 " fill="none" id="Game-backto-GameState" style="stroke:#181818;stroke-width:1.0;"/><polygon fill="none" points="271,181.164,267,187.164,271,193.164,275,187.164,271,181.164" style="stroke:#181818;stroke-width:1.0;"/></g><!--SRC=[lP712i8m38RlVOgmaoBp0OftFGfw7t6Bex2jfSa4KT_Tpk5a7hG3yPQ6_Fc_FsKIQB0cTfZJZXnw5Ej1QwNmmE8n5yWhP8Q41OKoXoBa6wtxPncqomAzQBqEvQvh9d1H08kJDGKKXbs5vzbStPIANBGD0jEKdtTDmLbTqtIYRJJitjHaM_atxCWs6dQ3rL7Cjs_wFUtODngty-afqy4IiiVOGCxK7o6WluLvIbgU42i16nFeTO4x]--></g></svg>